<?xml version="1.0" encoding="UTF-8" standalone="no"?>
<!-- Created with Inkscape (http://www.inkscape.org/) -->

<svg
   width="48"
   height="48"
   viewBox="0 0 12.7 12.7"
   version="1.1"
   id="svg1"
   xmlns="http://www.w3.org/2000/svg"
   xmlns:svg="http://www.w3.org/2000/svg">
  <defs
     id="defs1" />
  <g
     id="layer1">
    <path
       d="m 5.9696006,9.4964462 q -0.5760334,0 -1.0488156,-0.2173711 Q 4.4534371,9.061704 4.176289,8.6432646 3.8991408,8.2248253 3.8991408,7.6270548 q 0,-0.5216907 0.2065026,-0.8477473 Q 4.3121459,6.4532508 4.6545054,6.2684854 5.0022992,6.0782857 5.4207385,5.985903 5.8391779,5.8935202 6.2630515,5.8391775 6.8064793,5.7685319 7.1488388,5.7304919 7.4911983,5.692452 7.6542266,5.6000693 7.8226892,5.5076865 7.8226892,5.2848812 v -0.032606 q 0,-0.5651649 -0.3206224,-0.8749187 -0.3206224,-0.3151881 -0.9509985,-0.3151881 -0.6575476,0 -1.0270785,0.2880167 Q 5.1544589,4.6327679 5.0131677,4.9533902 L 4.0730377,4.6436364 Q 4.3067117,4.0893401 4.7034139,3.7795863 5.1001162,3.4643982 5.5783326,3.3339756 6.056549,3.2035529 6.5238969,3.2035529 q 0.3043195,0 0.6901532,0.07608 0.391268,0.070646 0.7499303,0.2880167 0.3640966,0.2173711 0.5977705,0.646679 0.2391082,0.4238736 0.2391082,1.135764 V 9.355155 H 7.838992 V 8.5291448 H 7.7737807 Q 7.6705294,8.7410816 7.4422898,8.9693213 7.2140501,9.1921267 6.8499535,9.3442864 6.4858569,9.4964462 5.9696006,9.4964462 Z M 6.1380632,8.6323961 q 0.5434277,0 0.9183929,-0.2119368 0.3749651,-0.2119369 0.5705991,-0.5488621 0.195634,-0.3423594 0.195634,-0.7118903 v -0.842313 q -0.059777,0.070646 -0.2608453,0.1304226 -0.2010683,0.054343 -0.4619136,0.097817 -0.2554111,0.043474 -0.4999536,0.07608 -0.2391082,0.027171 -0.3803994,0.043474 -0.353228,0.043474 -0.6629818,0.1521598 -0.3043196,0.1032513 -0.489085,0.3097538 -0.1847654,0.2010683 -0.1847654,0.5488621 0,0.4727821 0.353228,0.7173246 0.3586623,0.2391082 0.9020901,0.2391083 z"
       id="text1"
       aria-label="a" />
  </g>
</svg>
